<?xml version="1.0" encoding="utf-8"?>
<!-- Generator: Adobe Illustrator 24.0.0, SVG Export Plug-In . SVG Version: 6.00 Build 0)  -->
<svg version="1.1" id="Layer_1" xmlns="http://www.w3.org/2000/svg" xmlns:xlink="http://www.w3.org/1999/xlink" x="0px" y="0px"
	 viewBox="0 0 89.6 65.4" style="enable-background:new 0 0 89.6 65.4;" xml:space="preserve">
<style type="text/css">
	.st0{fill:#AAD7F3;}
	.st1{fill:#5CB3E4;}
	.st2{fill:#D4ECFA;}
	.st3{fill:#4586AB;}
</style>
<g>
	<g>
		<path class="st0" d="M21.8,14.9c-0.1,0-0.2,0-0.3,0c-1.2-0.2-2-1.2-1.8-2.4c0-0.2-0.1-0.4-0.3-0.7c-0.4-0.4-1-0.5-1.4-0.6
			c-1.5-0.2-3.2,0.3-5,0.8c-2.2,0.7-4.6,1.4-7.2,0.8c-2-0.4-3.9-1.6-5.1-3.3c-0.8-0.9-0.5-2.2,0.4-2.8C2,6,3.4,6.2,4,7.2
			c0.6,0.9,1.6,1.5,2.6,1.7c1.5,0.3,3.3-0.2,5.2-0.8c2.1-0.6,4.4-1.3,6.9-0.9c1.4,0.2,2.6,0.8,3.6,1.7c1.2,1.1,1.8,2.7,1.6,4.3
			C23.7,14.1,22.8,14.9,21.8,14.9z"/>
		<path class="st0" d="M21.8,14.9c-0.1,0-0.3,0-0.4,0c-1.1-0.2-1.9-1.4-1.6-2.5c0.4-1.7,0.2-3-0.5-3.7c-1.3-1.4-4.7-1.4-7.2-1
			C8.4,8.3,4.5,6.5,2.6,3.2C2,2.2,2.3,0.9,3.3,0.3C4.2-0.3,5.5,0,6.1,1c1,1.7,3.2,2.8,5.2,2.4c2.3-0.4,7.9-0.9,10.9,2.3
			c1.7,1.8,2.2,4.3,1.6,7.5C23.6,14.2,22.7,14.9,21.8,14.9z"/>
		<g>
			<path class="st0" d="M24,18.3h-4.1c-0.9,0-1.7,0.7-1.7,1.7v9.2c0,0.9,0.7,1.7,1.7,1.7H24c0.9,0,1.7-0.7,1.7-1.7V20
				C25.7,19.1,24.9,18.3,24,18.3z"/>
			<rect x="61.5" y="14.4" class="st0" width="12.3" height="11.2"/>
			<rect x="48.2" y="14.4" class="st1" width="12.3" height="11.2"/>
			<polygon class="st1" points="68.1,26.7 68.1,37.9 75.5,37.9 77.1,34.1 80.4,34.1 80.4,26.7 			"/>
			<rect x="54.8" y="26.7" class="st2" width="12.3" height="11.2"/>
			<polygon class="st1" points="29.4,26.7 14.5,26.7 11.3,39.9 32.6,39.9 			"/>
			<path class="st3" d="M77.8,62.9l11.7-26.4c0.1-0.3,0-0.6-0.1-0.8c-0.2-0.2-0.4-0.4-0.8-0.4h-9.9c-0.3,0-0.7,0.2-0.9,0.5l-1.2,2.6
				c-0.2,0.5-0.8,0.8-1.3,0.8H1c-0.3,0-0.6,0.1-0.8,0.4C0,39.8,0,40.1,0.1,40.4l9.8,22.9c0.1,0.2,0.7,2.1,2.4,2.1
				c0,0,60.7,0.1,62.6,0C77.1,65.3,77.8,62.9,77.8,62.9z"/>
			<path class="st0" d="M75.8,65.3"/>
			<rect x="41.5" y="26.7" class="st1" width="12.3" height="11.2"/>
		</g>
	</g>
</g>
</svg>
